<svg xmlns="http://www.w3.org/2000/svg" viewBox="0 0 1024 1024" width="1024" height="1024">
  <rect width="1024" height="1024" fill="#111111"/>
  <g fill="#ffffff" transform="translate(213.71 812.00) scale(0.857143 -0.857143)">
    <path d="M239 -12Q165 -12 107.5 19.5Q50 51 28 108L156 162Q169 136 191.5 123.5Q214 111 239 111Q263 111 277.5 119.0Q292 127 292 143Q292 159 277.5 168.0Q263 177 236 184L193 195Q123 212 85.5 254.0Q48 296 48 351Q48 428 100.5 470.0Q153 512 248 512Q327 512 378.5 480.5Q430 449 449 399L325 348Q318 368 296.5 378.5Q275 389 249 389Q227 389 215.0 379.0Q203 369 203 354Q203 331 260 318L313 305Q383 287 419.5 242.0Q456 197 456 142Q456 94 428.5 59.5Q401 25 352.0 6.5Q303 -12 239 -12Z"/>
    <g transform="translate(429 0)">
      <path d="M134 -15Q96 -15 69.0 12.0Q42 39 42 77Q42 114 69.0 141.0Q96 168 134 168Q171 168 198.0 141.0Q225 114 225 77Q225 39 198.0 12.0Q171 -15 134 -15Z"/>
    </g>
  </g>
</svg>